<svg width="60" height="60" viewBox="0 0 60 60" fill="none" xmlns="http://www.w3.org/2000/svg">
    <circle cx="30" cy="30" r="30" fill="#005FF9"/>
    <path d="M20 25C20 22.7909 21.7909 21 24 21H36C38.2091 21 40 22.7909 40 25V35C40 37.2091 38.2091 39 36 39H24C21.7909 39 20 37.2091 20 35V25Z" fill="white"/>
    <path d="M25 28C25 27.4477 25.4477 27 26 27H34C34.5523 27 35 27.4477 35 28C35 28.5523 34.5523 29 34 29H26C25.4477 29 25 28.5523 25 28Z" fill="#005FF9"/>
    <path d="M26 31C25.4477 31 25 31.4477 25 32C25 32.5523 25.4477 33 26 33H30C30.5523 33 31 32.5523 31 32C31 31.4477 30.5523 31 30 31H26Z" fill="#005FF9"/>
</svg>